# xmcd CD database file
#
# Track frame offsets:
#	150
#	11292
#	21865
#	31312
#	52432
#	63392
#	82927
#	99010
#	115017
#	130425
#	139555
#	165892
#	181540
#	195450
#	210710
#	222327
#	242282
#	253745
#	269730
#	289237
#
# Disc length: 4025 seconds
#
# Revision: 5
# Processed by: cddbd v1.5.1PL0 Copyright (c) Steve Scherf et al.
# Submitted via: CDex 1.51
#
DISCID=100fb714
DTITLE=Willie Nelson - Revolutions of Time...The Journey 1975-1993 - Pilgrimage
DYEAR=1995
DGENRE=Country
TTITLE0=Time Of The Preacher
TTITLE1=Blue Eyes Crying In The Rain
TTITLE2=If You've Got The Money I've Got The Time
TTITLE3=Uncloudy Day
TTITLE4=Always Late (With Your Kisses)
TTITLE5=Georgia On My Mind
TTITLE6=Blue Skies
TTITLE7=Whiskey River
TTITLE8=Stay A Little Longer
TTITLE9=Mr. Record Man
TTITLE10=Loving Her Was Easier (Than Anything I'll Do Again)
TTITLE11=Mamas Don't Let Your Babies Grow Up To Be Cowboys
TTITLE12=My Heroes Have Always Been Cowboys
TTITLE13=It's Not Supposed To Be That Way
TTITLE14=On The Road Again
TTITLE15=Angel Flying To Close To The Ground
TTITLE16=Mona Lisa
TTITLE17=Always On My Mind
TTITLE18=Last Thing I Needed First Thing In The Morning
TTITLE19=The Party's Over
EXTD=YEAR: 1995
EXTT0=
EXTT1=
EXTT2=
EXTT3=
EXTT4=
EXTT5=
EXTT6=
EXTT7=
EXTT8=
EXTT9=
EXTT10=
EXTT11=
EXTT12=
EXTT13=
EXTT14=
EXTT15=
EXTT16=
EXTT17=
EXTT18=
EXTT19=
PLAYORDER=
